<svg width="756" height="381" viewBox="0 0 756 381" fill="none" xmlns="http://www.w3.org/2000/svg">
<ellipse cx="142.8" cy="9.00907" rx="8.4" ry="9.00474" fill="#262626" fill-opacity="0.1"/>
<ellipse cx="210" cy="9.00907" rx="8.4" ry="9.00474" fill="#262626" fill-opacity="0.1"/>
<ellipse cx="8.4" cy="10.81" rx="8.4" ry="9.00474" fill="#262626" fill-opacity="0.1"/>
<ellipse cx="75.6" cy="9.00907" rx="8.4" ry="9.00474" fill="#262626" fill-opacity="0.1"/>
<ellipse cx="277.2" cy="9.00907" rx="8.39999" ry="9.00474" fill="#262626" fill-opacity="0.1"/>
<ellipse cx="344.4" cy="9.00907" rx="8.39999" ry="9.00474" fill="#262626" fill-opacity="0.1"/>
<ellipse cx="142.8" cy="154.886" rx="8.4" ry="9.00474" fill="#262626" fill-opacity="0.1"/>
<ellipse cx="210" cy="154.886" rx="8.4" ry="9.00474" fill="#262626" fill-opacity="0.1"/>
<ellipse cx="8.4" cy="154.886" rx="8.4" ry="9.00474" fill="#262626" fill-opacity="0.1"/>
<ellipse cx="75.6" cy="154.886" rx="8.4" ry="9.00474" fill="#262626" fill-opacity="0.1"/>
<ellipse cx="277.2" cy="154.886" rx="8.39999" ry="9.00474" fill="#262626" fill-opacity="0.1"/>
<ellipse cx="344.4" cy="154.886" rx="8.39999" ry="9.00474" fill="#262626" fill-opacity="0.1"/>
<ellipse cx="142.8" cy="81.047" rx="8.4" ry="9.00474" fill="#262626" fill-opacity="0.1"/>
<ellipse cx="210" cy="81.047" rx="8.4" ry="9.00474" fill="#262626" fill-opacity="0.1"/>
<ellipse cx="8.4" cy="81.047" rx="8.4" ry="9.00474" fill="#262626" fill-opacity="0.1"/>
<ellipse cx="75.6" cy="81.047" rx="8.4" ry="9.00474" fill="#262626" fill-opacity="0.1"/>
<ellipse cx="277.2" cy="81.047" rx="8.39999" ry="9.00474" fill="#262626" fill-opacity="0.1"/>
<ellipse cx="344.4" cy="81.047" rx="8.39999" ry="9.00474" fill="#262626" fill-opacity="0.1"/>
<ellipse cx="546" cy="225.123" rx="8.39999" ry="9.00474" fill="#262626" fill-opacity="0.1"/>
<ellipse cx="613.2" cy="225.123" rx="8.40002" ry="9.00474" fill="#262626" fill-opacity="0.1"/>
<ellipse cx="411.6" cy="226.924" rx="8.39999" ry="9.00474" fill="#262626" fill-opacity="0.1"/>
<ellipse cx="478.8" cy="225.123" rx="8.39999" ry="9.00474" fill="#262626" fill-opacity="0.1"/>
<ellipse cx="680.4" cy="225.123" rx="8.39999" ry="9.00474" fill="#262626" fill-opacity="0.1"/>
<ellipse cx="747.6" cy="225.123" rx="8.40002" ry="9.00474" fill="#262626" fill-opacity="0.1"/>
<ellipse cx="546" cy="371" rx="8.39999" ry="9.00474" fill="#262626" fill-opacity="0.1"/>
<ellipse cx="613.2" cy="371" rx="8.40002" ry="9.00474" fill="#262626" fill-opacity="0.1"/>
<ellipse cx="411.6" cy="371" rx="8.39999" ry="9.00474" fill="#262626" fill-opacity="0.1"/>
<ellipse cx="478.8" cy="371" rx="8.39999" ry="9.00474" fill="#262626" fill-opacity="0.1"/>
<ellipse cx="680.4" cy="371" rx="8.39999" ry="9.00474" fill="#262626" fill-opacity="0.1"/>
<ellipse cx="747.6" cy="371" rx="8.40002" ry="9.00474" fill="#262626" fill-opacity="0.1"/>
<ellipse cx="546" cy="297.161" rx="8.39999" ry="9.00474" fill="#262626" fill-opacity="0.1"/>
<ellipse cx="613.2" cy="297.161" rx="8.40002" ry="9.00474" fill="#262626" fill-opacity="0.1"/>
<ellipse cx="411.6" cy="297.161" rx="8.39999" ry="9.00474" fill="#262626" fill-opacity="0.1"/>
<ellipse cx="478.8" cy="297.161" rx="8.39999" ry="9.00474" fill="#262626" fill-opacity="0.1"/>
<ellipse cx="680.4" cy="297.161" rx="8.39999" ry="9.00474" fill="#262626" fill-opacity="0.1"/>
<ellipse cx="747.6" cy="297.161" rx="8.40002" ry="9.00474" fill="#262626" fill-opacity="0.1"/>
<ellipse cx="546" cy="9.00907" rx="8.39999" ry="9.00474" fill="#262626" fill-opacity="0.1"/>
<ellipse cx="613.2" cy="9.00907" rx="8.40002" ry="9.00474" fill="#262626" fill-opacity="0.1"/>
<ellipse cx="411.6" cy="10.81" rx="8.39999" ry="9.00474" fill="#262626" fill-opacity="0.1"/>
<ellipse cx="478.8" cy="9.00907" rx="8.39999" ry="9.00474" fill="#262626" fill-opacity="0.1"/>
<ellipse cx="680.4" cy="9.00907" rx="8.39999" ry="9.00474" fill="#262626" fill-opacity="0.1"/>
<ellipse cx="747.6" cy="9.00907" rx="8.40002" ry="9.00474" fill="#262626" fill-opacity="0.1"/>
<ellipse cx="546" cy="154.886" rx="8.39999" ry="9.00474" fill="#262626" fill-opacity="0.1"/>
<ellipse cx="613.2" cy="154.886" rx="8.40002" ry="9.00474" fill="#262626" fill-opacity="0.1"/>
<ellipse cx="411.6" cy="154.886" rx="8.39999" ry="9.00474" fill="#262626" fill-opacity="0.1"/>
<ellipse cx="478.8" cy="154.886" rx="8.39999" ry="9.00474" fill="#262626" fill-opacity="0.1"/>
<ellipse cx="680.4" cy="154.886" rx="8.39999" ry="9.00474" fill="#262626" fill-opacity="0.1"/>
<ellipse cx="747.6" cy="154.886" rx="8.40002" ry="9.00474" fill="#262626" fill-opacity="0.1"/>
<ellipse cx="546" cy="81.047" rx="8.39999" ry="9.00474" fill="#262626" fill-opacity="0.1"/>
<ellipse cx="613.2" cy="81.047" rx="8.40002" ry="9.00474" fill="#262626" fill-opacity="0.1"/>
<ellipse cx="411.6" cy="81.047" rx="8.39999" ry="9.00474" fill="#262626" fill-opacity="0.1"/>
<ellipse cx="478.8" cy="81.047" rx="8.39999" ry="9.00474" fill="#262626" fill-opacity="0.1"/>
<ellipse cx="680.4" cy="81.047" rx="8.39999" ry="9.00474" fill="#262626" fill-opacity="0.1"/>
<ellipse cx="747.6" cy="81.047" rx="8.40002" ry="9.00474" fill="#262626" fill-opacity="0.1"/>
<ellipse cx="142.8" cy="225.123" rx="8.4" ry="9.00474" fill="#262626" fill-opacity="0.1"/>
<ellipse cx="210" cy="225.123" rx="8.4" ry="9.00474" fill="#262626" fill-opacity="0.1"/>
<ellipse cx="8.4" cy="226.924" rx="8.4" ry="9.00474" fill="#262626" fill-opacity="0.1"/>
<ellipse cx="75.6" cy="225.123" rx="8.4" ry="9.00474" fill="#262626" fill-opacity="0.1"/>
<ellipse cx="277.2" cy="225.123" rx="8.39999" ry="9.00474" fill="#262626" fill-opacity="0.1"/>
<ellipse cx="344.4" cy="225.123" rx="8.39999" ry="9.00474" fill="#262626" fill-opacity="0.1"/>
<ellipse cx="142.8" cy="371" rx="8.4" ry="9.00474" fill="#262626" fill-opacity="0.1"/>
<ellipse cx="210" cy="371" rx="8.4" ry="9.00474" fill="#262626" fill-opacity="0.1"/>
<ellipse cx="8.4" cy="371" rx="8.4" ry="9.00474" fill="#262626" fill-opacity="0.1"/>
<ellipse cx="75.6" cy="371" rx="8.4" ry="9.00474" fill="#262626" fill-opacity="0.1"/>
<ellipse cx="277.2" cy="371" rx="8.39999" ry="9.00474" fill="#262626" fill-opacity="0.1"/>
<ellipse cx="344.4" cy="371" rx="8.39999" ry="9.00474" fill="#262626" fill-opacity="0.1"/>
<ellipse cx="142.8" cy="297.161" rx="8.4" ry="9.00474" fill="#262626" fill-opacity="0.1"/>
<ellipse cx="210" cy="297.161" rx="8.4" ry="9.00474" fill="#262626" fill-opacity="0.1"/>
<ellipse cx="8.4" cy="297.161" rx="8.4" ry="9.00474" fill="#262626" fill-opacity="0.1"/>
<ellipse cx="75.6" cy="297.161" rx="8.4" ry="9.00474" fill="#262626" fill-opacity="0.1"/>
<ellipse cx="277.2" cy="297.161" rx="8.39999" ry="9.00474" fill="#262626" fill-opacity="0.1"/>
<ellipse cx="344.4" cy="297.161" rx="8.39999" ry="9.00474" fill="#262626" fill-opacity="0.1"/>
</svg>
