<svg width="20" height="20" viewBox="0 0 20 20" fill="none" xmlns="http://www.w3.org/2000/svg">
<g clip-path="url(#clip0_104_259)">
<path fill-rule="evenodd" clip-rule="evenodd" d="M10.0535 0.912598C4.82042 0.912598 0.589966 5.22099 0.589966 10.5511C0.589966 14.8117 3.30056 18.4182 7.06088 19.6947C7.53102 19.7906 7.70323 19.4873 7.70323 19.2321C7.70323 19.0086 7.68773 18.2427 7.68773 17.4447C5.0552 18.0193 4.507 16.2957 4.507 16.2957C4.08393 15.1787 3.45708 14.8916 3.45708 14.8916C2.59546 14.3011 3.51985 14.3011 3.51985 14.3011C4.47562 14.365 4.97713 15.2905 4.97713 15.2905C5.82307 16.7585 7.18622 16.3437 7.73461 16.0883C7.81287 15.466 8.06373 15.0351 8.33008 14.7958C6.23045 14.5724 4.02136 13.7426 4.02136 10.0403C4.02136 8.98712 4.39716 8.12544 4.99263 7.45529C4.89868 7.21598 4.56957 6.22642 5.08678 4.90198C5.08678 4.90198 5.88583 4.64661 7.68754 5.89134C8.45891 5.68036 9.25442 5.57303 10.0535 5.57213C10.8526 5.57213 11.6671 5.68395 12.4193 5.89134C14.2212 4.64661 15.0203 4.90198 15.0203 4.90198C15.5375 6.22642 15.2082 7.21598 15.1142 7.45529C15.7254 8.12544 16.0857 8.98712 16.0857 10.0403C16.0857 13.7426 13.8766 14.5563 11.7613 14.7958C12.1061 15.099 12.4036 15.6734 12.4036 16.583C12.4036 17.8755 12.3881 18.9129 12.3881 19.2319C12.3881 19.4873 12.5605 19.7906 13.0305 19.6949C16.7908 18.418 19.5014 14.8117 19.5014 10.5511C19.5169 5.22099 15.2709 0.912598 10.0535 0.912598Z" fill="#C4316E"/>
</g>
<defs>
<clipPath id="clip0_104_259">
<rect width="18.9115" height="18.8003" fill="white" transform="translate(0.589966 0.912598)"/>
</clipPath>
</defs>
</svg>
