<svg width="19" height="20" viewBox="0 0 19 20" fill="none" xmlns="http://www.w3.org/2000/svg">
<g clip-path="url(#clip0_104_261)">
<rect x="0.0169678" y="0.912598" width="18.9115" height="18.8003" rx="9.40014" fill="#C4316E"/>
<mask id="path-2-inside-1_104_261" fill="white">
<path d="M9.66179 1.10059C4.46114 1.10059 0.206055 5.24605 0.206055 10.3127C0.206055 15.3794 4.46114 19.5249 9.66179 19.5249C14.8624 19.5249 19.1175 15.3794 19.1175 10.3127C19.1175 5.24605 14.8624 1.10059 9.66179 1.10059ZM9.66179 18.7578C4.8934 18.7578 0.99339 14.9564 0.99339 10.3127C0.99339 5.66905 4.8934 1.86764 9.66179 1.86764C14.4302 1.86764 18.3302 5.66905 18.3302 10.3127C18.3302 14.9564 14.4302 18.7578 9.66179 18.7578Z"/>
</mask>
<path d="M9.66179 1.10059C4.46114 1.10059 0.206055 5.24605 0.206055 10.3127C0.206055 15.3794 4.46114 19.5249 9.66179 19.5249C14.8624 19.5249 19.1175 15.3794 19.1175 10.3127C19.1175 5.24605 14.8624 1.10059 9.66179 1.10059ZM9.66179 18.7578C4.8934 18.7578 0.99339 14.9564 0.99339 10.3127C0.99339 5.66905 4.8934 1.86764 9.66179 1.86764C14.4302 1.86764 18.3302 5.66905 18.3302 10.3127C18.3302 14.9564 14.4302 18.7578 9.66179 18.7578Z" fill="#94B3C5"/>
<path d="M9.66179 0.100586C3.93362 0.100586 -0.793945 4.66932 -0.793945 10.3127H1.20605C1.20605 5.82277 4.98866 2.10059 9.66179 2.10059V0.100586ZM-0.793945 10.3127C-0.793945 15.9561 3.93362 20.5249 9.66179 20.5249V18.5249C4.98866 18.5249 1.20605 14.8027 1.20605 10.3127H-0.793945ZM9.66179 20.5249C15.39 20.5249 20.1175 15.9561 20.1175 10.3127H18.1175C18.1175 14.8027 14.3349 18.5249 9.66179 18.5249V20.5249ZM20.1175 10.3127C20.1175 4.66932 15.39 0.100586 9.66179 0.100586V2.10059C14.3349 2.10059 18.1175 5.82277 18.1175 10.3127H20.1175ZM9.66179 17.7578C5.42107 17.7578 1.99339 14.3798 1.99339 10.3127H-0.00661047C-0.00661047 15.533 4.36573 19.7578 9.66179 19.7578V17.7578ZM1.99339 10.3127C1.99339 6.24564 5.42107 2.86764 9.66179 2.86764V0.867637C4.36573 0.867637 -0.00661047 5.09247 -0.00661047 10.3127H1.99339ZM9.66179 2.86764C13.9025 2.86764 17.3302 6.24564 17.3302 10.3127H19.3302C19.3302 5.09247 14.9579 0.867637 9.66179 0.867637V2.86764ZM17.3302 10.3127C17.3302 14.3798 13.9025 17.7578 9.66179 17.7578V19.7578C14.9579 19.7578 19.3302 15.533 19.3302 10.3127H17.3302Z" fill="#94B3C5" mask="url(#path-2-inside-1_104_261)"/>
<path d="M14.1272 6.47363H5.1964C4.8336 6.47363 4.54028 6.75564 4.54028 7.10156V13.5237C4.54028 13.8697 4.8336 14.1517 5.1964 14.1517H14.1272C14.49 14.1517 14.7834 13.8697 14.7834 13.5237V7.10156C14.7834 6.75564 14.49 6.47363 14.1272 6.47363ZM13.2145 7.24256L9.66182 10.5383L6.10916 7.24256H13.2145ZM13.996 13.3827H5.32762V7.58849L9.10412 11.0797L9.66182 11.623L10.2195 11.0797L13.996 7.58849V13.3827Z" fill="#94B3C5"/>
</g>
<defs>
<clipPath id="clip0_104_261">
<rect x="0.0169678" y="0.912598" width="18.9115" height="18.8003" rx="9.40014" fill="white"/>
</clipPath>
</defs>
</svg>
