<svg width="20" height="20" viewBox="0 0 20 20" fill="none" xmlns="http://www.w3.org/2000/svg">
<path d="M9.97415 0.91514C8.61369 0.944593 7.2369 1.29094 5.93977 1.92979C4.851 2.46505 3.90829 3.17196 3.18108 3.99566C2.4028 4.87929 1.83186 5.80254 1.41004 6.85985C1.12508 7.57285 0.930003 8.29499 0.823781 9.02322C0.709389 9.80935 0.70224 10.6554 0.803354 11.4608C1.0015 13.0432 1.67151 14.6937 2.6418 15.9907C3.14023 16.658 3.64376 17.1648 4.34135 17.7041C5.65379 18.7157 7.25733 19.3952 8.88129 19.6268C9.37563 19.6969 9.61259 19.7131 10.1886 19.7131C10.6758 19.7131 10.7637 19.7091 11.1385 19.6715C12.3366 19.5527 13.6163 19.1525 14.749 18.5441C15.6039 18.086 16.4353 17.4594 17.0052 16.8449C18.0255 15.7449 18.719 14.5779 19.1797 13.1824C19.7833 11.3542 19.7986 9.42746 19.2236 7.58605C19.0469 7.01829 18.8886 6.64148 18.5903 6.07271C18.0398 5.02149 17.3259 4.05254 16.6681 3.46041C15.5886 2.48943 14.4334 1.81908 13.0791 1.37727C12.073 1.04819 11.018 0.891779 9.97415 0.91514ZM14.5652 6.61507C14.5938 6.62929 14.6479 6.67093 14.6857 6.70851C14.8031 6.8243 14.8419 6.94212 14.8328 7.15135C14.8287 7.26104 14.7633 7.57183 14.0453 10.9327C13.6153 12.9468 13.2507 14.6409 13.2364 14.6978C13.1281 15.1325 12.9085 15.2686 12.5378 15.1284C12.4091 15.0797 12.5255 15.1629 10.4491 13.6303C10.2305 13.4688 10.0467 13.3368 10.0395 13.3358C10.0334 13.3347 9.776 13.5765 9.46857 13.873C9.16114 14.1686 8.87414 14.4378 8.83124 14.4692C8.70051 14.5678 8.53709 14.6399 8.44517 14.6399C8.42679 14.6399 8.41147 14.6348 8.41147 14.6297C8.41147 14.6124 8.59531 12.2703 8.59837 12.251C8.5994 12.2419 9.06514 11.8122 9.63199 11.2963C10.1999 10.7803 11.1937 9.8774 11.8412 9.28933C12.4877 8.70126 13.0249 8.20662 13.0331 8.19037C13.0699 8.11928 13.0392 8.08576 12.933 8.08068C12.8646 8.07763 12.8544 8.07967 12.7829 8.11623C12.741 8.13858 12.0281 8.58141 11.1998 9.10041C8.30627 10.9134 7.29716 11.5441 7.2798 11.5492C7.26958 11.5512 6.73337 11.3928 6.08685 11.1968C5.44135 11.0007 4.87552 10.8291 4.83058 10.8149C4.72436 10.7834 4.63141 10.7235 4.59566 10.6615C4.52315 10.5396 4.59464 10.3781 4.77134 10.2623C4.87347 10.1953 4.94191 10.1679 5.78146 9.84591C6.19205 9.68849 6.78648 9.45996 7.10412 9.33808C7.42177 9.2162 8.13672 8.94197 8.69234 8.72868C9.24898 8.51539 10.3888 8.07763 11.2253 7.75668C12.0628 7.43573 13.0066 7.07314 13.3242 6.95126C13.6419 6.82938 13.9564 6.70851 14.0238 6.68211C14.2383 6.59984 14.2965 6.58562 14.412 6.58867C14.4957 6.5907 14.5233 6.59476 14.5652 6.61507Z" fill="#C4316E"/>
</svg>
