<svg width="20" height="20" viewBox="0 0 20 20" fill="none" xmlns="http://www.w3.org/2000/svg">
<path d="M9.10529 0.977301C3.91108 1.66178 0.259174 6.47067 1.02147 11.613C1.17215 12.6441 1.57102 13.8507 2.01865 14.623C2.08956 14.7458 2.14717 14.8819 2.14717 14.9257C2.14717 14.9696 1.85467 16.0577 1.50011 17.3477C1.14113 18.6333 0.861916 19.6995 0.875212 19.7127C0.888507 19.7258 2.00535 19.4494 3.35709 19.0984L5.81681 18.4622L6.27773 18.6728C9.29587 20.0856 12.8148 19.8443 15.5316 18.041C16.1786 17.611 16.5288 17.3302 17.0606 16.7993C18.8068 15.0661 19.7862 12.7187 19.7862 10.2704C19.7862 8.80931 19.4893 7.48423 18.8733 6.21619C18.0932 4.60152 16.8168 3.20185 15.2657 2.25412C14.171 1.58719 12.7129 1.09577 11.401 0.955362C10.816 0.889547 9.67258 0.90271 9.10529 0.977301ZM7.75356 6.01436C7.8156 6.05384 7.90867 6.18109 7.96629 6.29517C8.10811 6.57598 8.74188 8.09411 8.7729 8.23891C8.81279 8.40125 8.64437 8.704 8.28982 9.12522C8.11254 9.33144 7.99731 9.50695 7.99731 9.56837C7.99731 9.62541 8.09925 9.82725 8.22334 10.0159C8.92358 11.0777 9.74792 11.8017 10.8603 12.3414C11.5251 12.6617 11.596 12.6617 11.9063 12.3019C12.0392 12.1527 12.2608 11.8851 12.4026 11.7096C12.6952 11.341 12.7572 11.3234 13.1915 11.5077C13.7189 11.7271 14.9776 12.3458 15.0574 12.4204C15.2258 12.5871 15.0928 13.4559 14.8402 13.8113C14.7737 13.9078 14.5964 14.0745 14.4502 14.1886C13.812 14.6669 13.2181 14.8073 12.4115 14.6712C11.893 14.5835 10.8204 14.2325 10.2133 13.9517C8.78619 13.2935 7.34582 11.9114 6.22897 10.13C5.66612 9.23052 5.46225 8.37493 5.6218 7.59831C5.77692 6.83485 6.30432 6.12405 6.84501 5.94854C7.02229 5.8915 7.62946 5.93538 7.75356 6.01436Z" fill="#C4316E"/>
</svg>
